<?xml version="1.0" standalone="no"?><!DOCTYPE svg PUBLIC "-//W3C//DTD SVG 1.1//EN" "http://www.w3.org/Graphics/SVG/1.1/DTD/svg11.dtd"><svg t="1633079324001" class="icon" viewBox="0 0 1024 1024" version="1.1" xmlns="http://www.w3.org/2000/svg" p-id="7831" xmlns:xlink="http://www.w3.org/1999/xlink" width="200" height="200"><defs><style type="text/css"></style></defs><path d="M511.50695 0a511.489 511.489 0 1 0 511.488 511.489A511.489 511.489 0 0 0 511.50695 0z m254.465 553.047a34.142 34.142 0 0 1-48.208 0L546.15995 380.931V725.42a34.142 34.142 0 0 1-68.284 0V380.93L305.75995 553.047a34.142 34.142 0 0 1-48.208-48.208l230.17-230.17a34.142 34.142 0 0 1 48.208 0l230.17 230.17a34.142 34.142 0 0 1 0.384 48.208z" fill="#00BBEB" p-id="7832"></path><path d="M766.48395 504.84l-230.17-230.17a34.142 34.142 0 0 0-48.208 0l-230.17 230.17a34.142 34.142 0 0 0 48.208 48.207l171.732-172.116V725.42a34.142 34.142 0 0 0 68.284 0V380.93l172.116 172.116a34.142 34.142 0 1 0 48.208-48.208z" fill="#FFFFFF" p-id="7833"></path></svg>